<svg width="1200" height="900" viewBox="0 0 1200 900" fill="none" xmlns="http://www.w3.org/2000/svg">
  <rect width="1200" height="900" fill="#F7F2EC"/>
  <ellipse cx="600" cy="690" rx="250" ry="60" fill="#EAD8C6"/>
  <path d="M440 360C440 290 512 240 600 240C688 240 760 290 760 360V580C760 650 688 700 600 700C512 700 440 650 440 580V360Z" fill="#FFF9F2" stroke="#C8A883" stroke-width="12"/>
  <path d="M540 200C560 175 560 150 540 125" stroke="#B88C64" stroke-width="10" stroke-linecap="round"/>
  <path d="M600 190C620 165 620 140 600 115" stroke="#B88C64" stroke-width="10" stroke-linecap="round"/>
  <path d="M660 200C680 175 680 150 660 125" stroke="#B88C64" stroke-width="10" stroke-linecap="round"/>
  <text x="180" y="810" fill="#4B3322" font-size="58" font-family="'Noto Serif TC', serif">空性香境杯</text>
</svg>
